HIERARCHY
ROOT Hips
{
  OFFSET 0 0 0
  CHANNELS 6 Xposition Yposition Zposition Zrotation Yrotation Xrotation
  JOINT LeftThigh
  {
    OFFSET 8.409438 0 -5.917753
    CHANNELS 3 Zrotation Yrotation Xrotation
    JOINT LeftLeg
    {
      OFFSET 0 0 -42.358652
      CHANNELS 3 Zrotation Yrotation Xrotation
      JOINT LeftFoot
      {
        OFFSET 0 0 -39.357303
        CHANNELS 3 Zrotation Yrotation Xrotation
      }
    }
  }
  JOINT RightThigh
  {
    OFFSET -8.409438 0 -5.917753
    CHANNELS 3 Zrotation Yrotation Xrotation
    JOINT RightLeg
    {
      OFFSET 0 0 -42.358652
      CHANNELS 3 Zrotation Yrotation Xrotation
      JOINT RightFoot
      {
        OFFSET 0 0 -39.357303
        CHANNELS 3 Zrotation Yrotation Xrotation
      }
    }
  }
  JOINT SpineLow
  {
    OFFSET 0 0 4.719101
    CHANNELS 3 Zrotation Yrotation Xrotation
    JOINT SpineMid
    {
      OFFSET 0 0 12.899191
      CHANNELS 3 Zrotation Yrotation Xrotation
      JOINT Chest
      {
        OFFSET 0 0 12.899191
        CHANNELS 3 Zrotation Yrotation Xrotation
        JOINT LeftShoulder
        {
          OFFSET 7.550562 1.41573 9.438202
          CHANNELS 3 Zrotation Yrotation Xrotation
          JOINT LeftArm
          {
            OFFSET 9.155056 0 4.247191
            CHANNELS 3 Zrotation Yrotation Xrotation
            JOINT LeftForearm
            {
              OFFSET 0 0 25.771955
              CHANNELS 3 Zrotation Yrotation Xrotation
              JOINT LeftHand
              {
                OFFSET 0 0 25.197169
                CHANNELS 3 Zrotation Yrotation Xrotation
              }
            }
          }
        }
        JOINT RightShoulder
        {
          OFFSET -7.550562 1.41573 9.438202
          CHANNELS 3 Zrotation Yrotation Xrotation
          JOINT RightArm
          {
            OFFSET -9.155056 0 4.247191
            CHANNELS 3 Zrotation Yrotation Xrotation
            JOINT RightForearm
            {
              OFFSET 0 0 -25.771955
              CHANNELS 3 Zrotation Yrotation Xrotation
              JOINT RightHand
              {
                OFFSET 0 0 -25.197169
                CHANNELS 3 Zrotation Yrotation Xrotation
              }
            }
          }
        }
        JOINT Neck
        {
          OFFSET 0 0 15.101124
          CHANNELS 3 Zrotation Yrotation Xrotation
          JOINT Head
          {
            OFFSET 0 0 11.325843
            CHANNELS 3 Zrotation Yrotation Xrotation
            End Site
            {
              OFFSET 0 0 14.157303
            }
          }
        }
      }
    }
  }
}
MOTION
Frames: 8
Frame Time: 0.01
0.0  101.685394  0.0  1.415926  34.768517  -99.89448  10.65769  -18.122943  -0.524069  -12.69357  10.06934  23.04465  2.692453  2.707219  3.960709  -21.631804  19.718923  3.956262  -10.970863  4.191093  19.695581  5.451208  5.494073  -1.94843  -0.285945  1.086838  1.03167  -0.735517  2.9823  2.808819  -0.735517  2.982299  2.808819  2.5846  15.469334  26.615321  114.86738  71.180619  -160.775903  -52.949943  -19.015122  73.416169  47.498464  -2.02158  36.189239  20.352288  -22.349452  18.359352  124.005304  64.045647  46.675126  -15.487552  -25.511224  -118.293261  75.161856  -8.190768  48.951343  -0.221075  -4.185302  -0.93518  -0.172147  -3.138648  -0.702589  
0.0  101.685394  0.0  1.246975  34.909497  -100.069467  10.542402  -18.455453  -1.050187  -12.865145  10.670283  23.928964  2.698226  2.789785  3.933608  -21.810658  19.578199  3.722311  -10.713769  4.327772  20.43603  5.375237  5.675078  -2.001066  -0.282234  1.087411  1.05594  -0.724244  2.983962  2.875364  -0.724244  2.983962  2.875364  2.378764  15.383833  26.481995  113.551204  71.779698  -162.069619  -53.088894  -18.430003  73.5907  47.078862  -1.776905  36.761948  20.316779  -22.29913  18.539773  122.887647  64.537406  45.387828  -15.919235  -24.373516  -116.372499  72.995344  -8.014099  49.665708  -0.341646  -4.393889  -0.95953  -0.26302  -3.294892  -0.721755  
0.0  101.685394  0.0  1.007615  35.209994  -100.199427  10.477493  -18.743617  -1.744585  -13.542098  11.352784  24.698609  2.929944  2.927531  4.008088  -23.118743  19.563331  2.852452  -10.629525  4.510713  21.307592  6.152401  6.083369  -1.964828  -0.294731  1.087177  1.076554  -0.757492  2.984089  2.931181  -0.757492  2.984089  2.931181  2.115948  15.25794  26.360674  111.883526  72.318498  -163.499067  -53.784929  -17.12164  73.799062  47.708071  -1.383154  37.595518  20.294868  -22.248779  18.626882  122.095863  64.894651  44.418921  -16.568567  -22.959315  -114.957001  70.98202  -8.335457  50.445055  -0.545305  -4.63086  -1.017104  -0.416479  -3.472253  -0.766553  
0.0  101.685394  0.0  0.711737  35.596947  -100.302688  10.266343  -18.91443  -2.531087  -13.969761  11.819644  25.761542  3.089545  3.074191  3.893146  -23.473994  19.427277  2.361322  -10.398188  4.580856  22.374208  6.045204  6.312895  -2.050476  -0.32963  1.090866  1.09041  -0.852133  2.995882  2.967457  -0.852133  2.995882  2.967457  1.822764  15.198962  26.288112  110.433862  72.824717  -164.822697  -54.529261  -15.737012  74.05783  48.564971  -0.604224  38.202291  20.345253  -22.214179  18.629421  121.534728  65.090223  43.593878  -17.153947  -21.728703  -114.047478  69.573471  -8.7259  50.653017  -0.736172  -4.924625  -1.07735  -0.560491  -3.692192  -0.81346  
0.0  101.685394  0.0  0.38929  36.169618  -100.331894  9.89744  -19.059248  -3.453133  -14.207856  12.290078  26.999929  3.308266  3.238272  3.772436  -23.880422  19.307403  1.653973  -10.395218  4.705496  23.673153  6.004934  6.527178  -2.14882  -0.390499  1.098232  1.105492  -1.017563  3.018957  3.005844  -1.017563  3.018957  3.005844  1.332261  15.221543  26.194067  109.617973  73.268257  -165.648192  -55.326614  -14.298213  74.385899  49.425924  0.786413  38.517598  20.439034  -22.190234  18.497112  121.041934  65.218001  42.852659  -17.643753  -20.825222  -113.668665  68.657987  -9.209691  50.059701  -0.984076  -5.237911  -1.184591  -0.747723  -3.926557  -0.896281  
0.0  101.685394  0.0  -0.005848  36.602366  -100.474205  9.843647  -19.373246  -4.358133  -14.289184  12.734132  28.306232  3.167365  3.355322  3.500438  -23.709523  19.121038  1.066439  -10.692779  4.915147  25.147651  5.988981  6.731107  -2.252807  -0.439932  1.105264  1.133551  -1.151128  3.040883  3.080217  -1.151128  3.040883  3.080217  0.757951  15.297643  26.158038  109.272846  73.720661  -166.112649  -56.327199  -12.578393  74.755243  50.300534  2.849284  38.6594  20.544544  -22.193994  18.364175  120.430815  65.537863  41.960096  -17.887232  -20.281535  -113.690108  68.073763  -10.032935  48.8325  -1.208128  -5.610748  -1.304156  -0.917383  -4.205528  -0.988462  
0.0  101.685394  0.0  -0.366582  36.955475  -100.658045  10.183818  -19.835917  -5.254637  -14.331527  13.244057  29.711177  3.066001  3.391163  3.232449  -23.423806  18.909497  0.435794  -10.979449  5.308514  26.722179  6.064049  6.866615  -2.35392  -0.483892  1.120403  1.175232  -1.26869  3.085067  3.191935  -1.26869  3.085067  3.191935  -0.044058  15.420614  26.121679  109.759833  74.158568  -165.889686  -57.601471  -10.594648  75.154348  51.037218  5.6167  38.721913  20.590247  -22.22641  18.289697  119.863864  66.145913  41.232566  -17.853073  -19.986642  -114.271298  67.62505  -11.50552  48.0369  -1.44205  -5.998414  -1.455224  -1.094884  -4.495441  -1.104625  
0.0  101.685394  0.0  -0.798106  37.058343  -100.862761  11.069686  -20.45271  -6.246791  -14.520993  13.651426  31.07856  2.43263  3.52613  2.875767  -22.804144  18.317951  -0.18293  -11.3766  6.121698  28.325214  6.351249  6.911475  -2.499022  -0.517227  1.111334  1.222977  -1.358045  3.062839  3.321118  -1.358045  3.062839  3.321118  -0.683578  15.615942  26.112665  110.686109  74.527795  -165.07233  -59.151761  -8.368849  75.753081  51.415661  9.223476  38.679616  20.62212  -22.203411  18.278699  119.529427  66.849203  40.581928  -18.075853  -19.603494  -114.769823  67.132263  -13.332794  47.99463  -1.583857  -6.347219  -1.66506  -1.204041  -4.756184  -1.264033  
